<?xml version="1.0" encoding="utf-8"?><!-- Uploaded to: SVG Repo, www.svgrepo.com, Generator: SVG Repo Mixer Tools -->
<svg width="800px" height="800px" viewBox="0 0 16 16" xmlns="http://www.w3.org/2000/svg">
  <path fill="#000000" fill-rule="evenodd" d="M6,3 C6,3.74028 5.5978,4.38663 5,4.73244 L5,7.99963 C5.83566,7.37194 6.87439,7 8,7 C9.42133,7 10.6118,6.01158 10.9215,4.6846 C10.3673,4.32903 10,3.70741 10,3 C10,1.89543 10.8954,1 12,1 C13.1046,1 14,1.89543 14,3 C14,3.76403 13.5716,4.42799 12.9419,4.76478 C12.5738,7.16318 10.5014,9 8,9 C6.57867,9 5.3882,9.98842 5.07847,11.3154 C5.63273,11.671 6,12.2926 6,13 C6,14.1046 5.10457,15 4,15 C2.89543,15 2,14.1046 2,13 C2,12.2597 2.4022,11.6134 3,11.2676 L3,4.73244 C2.4022,4.38663 2,3.74028 2,3 C2,1.89543 2.89543,1 4,1 C5.10457,1 6,1.89543 6,3 Z"/>
</svg>